<mxfile host="Electron" agent="Mozilla/5.0 (Windows NT 10.0; Win64; x64) AppleWebKit/537.36 (KHTML, like Gecko) draw.io/24.7.5 Chrome/126.0.6478.183 Electron/31.3.0 Safari/537.36" version="24.7.5">
  <diagram name="Page-1" id="nzHkagQQSFCx0A0-8uom">
    <mxGraphModel dx="2302" dy="1347" grid="1" gridSize="10" guides="1" tooltips="1" connect="1" arrows="1" fold="1" page="1" pageScale="1" pageWidth="850" pageHeight="1100" math="0" shadow="0">
      <root>
        <mxCell id="0" />
        <mxCell id="1" parent="0" />
        <mxCell id="NUFsKL0PFLLsc1Rbk0hu-1" value="&lt;span style=&quot;font-size:12.0pt;font-family:&amp;quot;Cambria&amp;quot;,serif;&lt;br/&gt;mso-fareast-font-family:&amp;quot;Times New Roman&amp;quot;;mso-bidi-font-family:TimesNewRomanPSMT;&lt;br/&gt;mso-ansi-language:EN-US;mso-fareast-language:EN-US;mso-bidi-language:AR-EG&quot;&gt;Musicana&amp;nbsp;&lt;/span&gt;" style="whiteSpace=wrap;html=1;align=center;strokeColor=default;verticalAlign=middle;fontFamily=Helvetica;fontSize=22;fontColor=default;fillColor=default;" parent="1" vertex="1">
          <mxGeometry x="160" y="154" width="100" height="40" as="geometry" />
        </mxCell>
        <mxCell id="NUFsKL0PFLLsc1Rbk0hu-2" value="Name" style="ellipse;whiteSpace=wrap;html=1;align=center;strokeColor=default;verticalAlign=middle;fontFamily=Helvetica;fontSize=18;fontColor=default;fontStyle=0;fillColor=default;" parent="1" vertex="1">
          <mxGeometry x="10" y="154" width="100" height="40" as="geometry" />
        </mxCell>
        <mxCell id="NUFsKL0PFLLsc1Rbk0hu-3" value="Address" style="ellipse;whiteSpace=wrap;html=1;align=center;strokeColor=default;verticalAlign=middle;fontFamily=Helvetica;fontSize=18;fontColor=default;fontStyle=0;fillColor=default;" parent="1" vertex="1">
          <mxGeometry x="210" y="64" width="100" height="40" as="geometry" />
        </mxCell>
        <mxCell id="NUFsKL0PFLLsc1Rbk0hu-4" value="" style="endArrow=none;html=1;rounded=0;entryX=0.5;entryY=0;entryDx=0;entryDy=0;" parent="1" target="NUFsKL0PFLLsc1Rbk0hu-1" edge="1">
          <mxGeometry relative="1" as="geometry">
            <mxPoint x="130" y="104" as="sourcePoint" />
            <mxPoint x="170" y="134" as="targetPoint" />
            <Array as="points" />
          </mxGeometry>
        </mxCell>
        <mxCell id="NUFsKL0PFLLsc1Rbk0hu-5" value="" style="endArrow=none;html=1;rounded=0;entryX=0;entryY=0.5;entryDx=0;entryDy=0;exitX=1;exitY=0.5;exitDx=0;exitDy=0;" parent="1" target="NUFsKL0PFLLsc1Rbk0hu-1" edge="1">
          <mxGeometry relative="1" as="geometry">
            <mxPoint x="110" y="174" as="sourcePoint" />
            <mxPoint x="215" y="164" as="targetPoint" />
            <Array as="points" />
          </mxGeometry>
        </mxCell>
        <mxCell id="NUFsKL0PFLLsc1Rbk0hu-6" value="" style="endArrow=none;html=1;rounded=0;entryX=0.656;entryY=-0.07;entryDx=0;entryDy=0;exitX=0.44;exitY=0.96;exitDx=0;exitDy=0;exitPerimeter=0;entryPerimeter=0;" parent="1" source="NUFsKL0PFLLsc1Rbk0hu-3" target="NUFsKL0PFLLsc1Rbk0hu-1" edge="1">
          <mxGeometry relative="1" as="geometry">
            <mxPoint x="140" y="234" as="sourcePoint" />
            <mxPoint x="190" y="234" as="targetPoint" />
            <Array as="points" />
          </mxGeometry>
        </mxCell>
        <mxCell id="NUFsKL0PFLLsc1Rbk0hu-7" value="" style="endArrow=none;html=1;rounded=0;" parent="1" edge="1">
          <mxGeometry relative="1" as="geometry">
            <mxPoint x="250" y="64" as="sourcePoint" />
            <mxPoint x="240" y="44" as="targetPoint" />
            <Array as="points" />
          </mxGeometry>
        </mxCell>
        <mxCell id="NUFsKL0PFLLsc1Rbk0hu-8" value="" style="endArrow=none;html=1;rounded=0;entryX=0.276;entryY=0.9;entryDx=0;entryDy=0;entryPerimeter=0;" parent="1" target="NUFsKL0PFLLsc1Rbk0hu-9" edge="1">
          <mxGeometry relative="1" as="geometry">
            <mxPoint x="270" y="64" as="sourcePoint" />
            <mxPoint x="290" y="44" as="targetPoint" />
            <Array as="points" />
          </mxGeometry>
        </mxCell>
        <mxCell id="NUFsKL0PFLLsc1Rbk0hu-9" value="City" style="ellipse;whiteSpace=wrap;html=1;align=center;strokeColor=default;verticalAlign=middle;fontFamily=Helvetica;fontSize=18;fontColor=default;fontStyle=0;fillColor=default;" parent="1" vertex="1">
          <mxGeometry x="270" y="4" width="100" height="40" as="geometry" />
        </mxCell>
        <mxCell id="NUFsKL0PFLLsc1Rbk0hu-10" value="Street" style="ellipse;whiteSpace=wrap;html=1;align=center;strokeColor=default;verticalAlign=middle;fontFamily=Helvetica;fontSize=18;fontColor=default;fontStyle=0;fillColor=default;" parent="1" vertex="1">
          <mxGeometry x="170" y="4" width="100" height="40" as="geometry" />
        </mxCell>
        <mxCell id="NUFsKL0PFLLsc1Rbk0hu-11" value="PhoneNumber" style="ellipse;whiteSpace=wrap;html=1;align=center;strokeColor=default;verticalAlign=middle;fontFamily=Helvetica;fontSize=18;fontColor=default;fontStyle=0;fillColor=default;" parent="1" vertex="1">
          <mxGeometry x="18" y="232" width="150" height="40" as="geometry" />
        </mxCell>
        <mxCell id="NUFsKL0PFLLsc1Rbk0hu-12" value="" style="endArrow=none;html=1;rounded=0;entryX=0.656;entryY=-0.07;entryDx=0;entryDy=0;exitX=0;exitY=1;exitDx=0;exitDy=0;entryPerimeter=0;" parent="1" source="NUFsKL0PFLLsc1Rbk0hu-1" edge="1">
          <mxGeometry relative="1" as="geometry">
            <mxPoint x="138" y="184" as="sourcePoint" />
            <mxPoint x="110" y="233" as="targetPoint" />
            <Array as="points" />
          </mxGeometry>
        </mxCell>
        <mxCell id="NUFsKL0PFLLsc1Rbk0hu-13" value="&lt;span style=&quot;font-size:12.0pt;font-family:&amp;quot;Cambria&amp;quot;,serif;&lt;br/&gt;mso-fareast-font-family:&amp;quot;Times New Roman&amp;quot;;mso-bidi-font-family:TimesNewRomanPSMT;&lt;br/&gt;mso-ansi-language:EN-US;mso-fareast-language:EN-US;mso-bidi-language:AR-EG&quot;&gt;instrument&amp;nbsp;&lt;/span&gt;" style="whiteSpace=wrap;html=1;align=center;" parent="1" vertex="1">
          <mxGeometry x="550" y="154" width="100" height="40" as="geometry" />
        </mxCell>
        <mxCell id="NUFsKL0PFLLsc1Rbk0hu-14" value="" style="endArrow=none;html=1;rounded=0;entryX=0.4;entryY=1;entryDx=0;entryDy=0;exitX=0.5;exitY=0;exitDx=0;exitDy=0;entryPerimeter=0;" parent="1" source="NUFsKL0PFLLsc1Rbk0hu-13" target="NUFsKL0PFLLsc1Rbk0hu-17" edge="1">
          <mxGeometry relative="1" as="geometry">
            <mxPoint x="586" y="133.5" as="sourcePoint" />
            <mxPoint x="636" y="133.5" as="targetPoint" />
            <Array as="points" />
          </mxGeometry>
        </mxCell>
        <mxCell id="NUFsKL0PFLLsc1Rbk0hu-15" value="Key" style="ellipse;whiteSpace=wrap;html=1;align=center;strokeColor=default;verticalAlign=middle;fontFamily=Helvetica;fontSize=18;fontColor=default;fontStyle=0;fillColor=default;" parent="1" vertex="1">
          <mxGeometry x="706" y="154" width="100" height="40" as="geometry" />
        </mxCell>
        <mxCell id="NUFsKL0PFLLsc1Rbk0hu-16" value="" style="endArrow=none;html=1;rounded=0;entryX=0.656;entryY=-0.07;entryDx=0;entryDy=0;entryPerimeter=0;" parent="1" edge="1">
          <mxGeometry relative="1" as="geometry">
            <mxPoint x="706" y="173" as="sourcePoint" />
            <mxPoint x="650" y="173" as="targetPoint" />
            <Array as="points" />
          </mxGeometry>
        </mxCell>
        <mxCell id="NUFsKL0PFLLsc1Rbk0hu-17" value="Name" style="ellipse;whiteSpace=wrap;html=1;align=center;fontStyle=4;strokeColor=default;verticalAlign=middle;fontFamily=Helvetica;fontSize=18;fontColor=default;fillColor=default;" parent="1" vertex="1">
          <mxGeometry x="606" y="94" width="100" height="40" as="geometry" />
        </mxCell>
        <mxCell id="NUFsKL0PFLLsc1Rbk0hu-18" value="Song" style="whiteSpace=wrap;html=1;align=center;fontSize=22;" parent="1" vertex="1">
          <mxGeometry x="145" y="434" width="120" height="40" as="geometry" />
        </mxCell>
        <mxCell id="NUFsKL0PFLLsc1Rbk0hu-19" value="Title" style="ellipse;whiteSpace=wrap;html=1;align=center;fontStyle=4;fontSize=18;strokeColor=default;verticalAlign=middle;fontFamily=Helvetica;fontColor=default;fillColor=default;" parent="1" vertex="1">
          <mxGeometry x="130" y="504" width="65" height="40" as="geometry" />
        </mxCell>
        <mxCell id="NUFsKL0PFLLsc1Rbk0hu-20" value="Author" style="ellipse;whiteSpace=wrap;html=1;align=center;fontStyle=0;fontSize=18;strokeColor=default;verticalAlign=middle;fontFamily=Helvetica;fontColor=default;fillColor=default;" parent="1" vertex="1">
          <mxGeometry x="210" y="504" width="80" height="40" as="geometry" />
        </mxCell>
        <mxCell id="NUFsKL0PFLLsc1Rbk0hu-21" value="" style="endArrow=none;html=1;rounded=0;fontSize=18;exitX=0;exitY=0;exitDx=0;exitDy=0;entryX=0.75;entryY=1;entryDx=0;entryDy=0;" parent="1" source="NUFsKL0PFLLsc1Rbk0hu-20" target="NUFsKL0PFLLsc1Rbk0hu-18" edge="1">
          <mxGeometry relative="1" as="geometry">
            <mxPoint x="105" y="244" as="sourcePoint" />
            <mxPoint x="265" y="244" as="targetPoint" />
          </mxGeometry>
        </mxCell>
        <mxCell id="NUFsKL0PFLLsc1Rbk0hu-22" value="" style="endArrow=none;html=1;rounded=0;fontSize=18;exitX=0.5;exitY=0;exitDx=0;exitDy=0;entryX=0.25;entryY=1;entryDx=0;entryDy=0;" parent="1" source="NUFsKL0PFLLsc1Rbk0hu-19" target="NUFsKL0PFLLsc1Rbk0hu-18" edge="1">
          <mxGeometry relative="1" as="geometry">
            <mxPoint x="115" y="254" as="sourcePoint" />
            <mxPoint x="275" y="254" as="targetPoint" />
          </mxGeometry>
        </mxCell>
        <mxCell id="NUFsKL0PFLLsc1Rbk0hu-23" value="Album" style="whiteSpace=wrap;html=1;align=center;fontSize=22;" parent="1" vertex="1">
          <mxGeometry x="576" y="434" width="120" height="40" as="geometry" />
        </mxCell>
        <mxCell id="NUFsKL0PFLLsc1Rbk0hu-24" value="Title" style="ellipse;whiteSpace=wrap;html=1;align=center;fontStyle=0;fontSize=18;" parent="1" vertex="1">
          <mxGeometry x="726" y="454" width="70" height="40" as="geometry" />
        </mxCell>
        <mxCell id="NUFsKL0PFLLsc1Rbk0hu-25" value="Copyright_Date" style="ellipse;whiteSpace=wrap;html=1;align=center;fontStyle=0;fontSize=18;" parent="1" vertex="1">
          <mxGeometry x="576" y="494" width="140" height="40" as="geometry" />
        </mxCell>
        <mxCell id="NUFsKL0PFLLsc1Rbk0hu-26" value="ID" style="ellipse;whiteSpace=wrap;html=1;align=center;fontStyle=4;fontSize=18;" parent="1" vertex="1">
          <mxGeometry x="736" y="394" width="70" height="40" as="geometry" />
        </mxCell>
        <mxCell id="NUFsKL0PFLLsc1Rbk0hu-27" value="" style="endArrow=none;html=1;rounded=0;fontSize=18;exitX=0.5;exitY=0;exitDx=0;exitDy=0;entryX=0.5;entryY=1;entryDx=0;entryDy=0;" parent="1" source="NUFsKL0PFLLsc1Rbk0hu-25" target="NUFsKL0PFLLsc1Rbk0hu-23" edge="1">
          <mxGeometry relative="1" as="geometry">
            <mxPoint x="376" y="404" as="sourcePoint" />
            <mxPoint x="536" y="404" as="targetPoint" />
          </mxGeometry>
        </mxCell>
        <mxCell id="NUFsKL0PFLLsc1Rbk0hu-28" value="" style="endArrow=none;html=1;rounded=0;fontSize=18;exitX=0;exitY=0.5;exitDx=0;exitDy=0;entryX=1;entryY=0.75;entryDx=0;entryDy=0;" parent="1" source="NUFsKL0PFLLsc1Rbk0hu-24" target="NUFsKL0PFLLsc1Rbk0hu-23" edge="1">
          <mxGeometry relative="1" as="geometry">
            <mxPoint x="386" y="414" as="sourcePoint" />
            <mxPoint x="546" y="414" as="targetPoint" />
          </mxGeometry>
        </mxCell>
        <mxCell id="NUFsKL0PFLLsc1Rbk0hu-29" value="" style="endArrow=none;html=1;rounded=0;fontSize=18;entryX=0;entryY=1;entryDx=0;entryDy=0;exitX=1;exitY=0.25;exitDx=0;exitDy=0;" parent="1" source="NUFsKL0PFLLsc1Rbk0hu-23" target="NUFsKL0PFLLsc1Rbk0hu-26" edge="1">
          <mxGeometry relative="1" as="geometry">
            <mxPoint x="396" y="424" as="sourcePoint" />
            <mxPoint x="556" y="424" as="targetPoint" />
          </mxGeometry>
        </mxCell>
        <mxCell id="NUFsKL0PFLLsc1Rbk0hu-30" value="Play" style="shape=rhombus;double=1;perimeter=rhombusPerimeter;whiteSpace=wrap;html=1;align=center;strokeColor=default;verticalAlign=middle;fontFamily=Helvetica;fontSize=18;fontColor=default;fontStyle=0;fillColor=default;" parent="1" vertex="1">
          <mxGeometry x="360" y="144" width="100" height="60" as="geometry" />
        </mxCell>
        <mxCell id="NUFsKL0PFLLsc1Rbk0hu-31" value="" style="endArrow=none;html=1;rounded=0;entryX=0;entryY=0.5;entryDx=0;entryDy=0;" parent="1" target="NUFsKL0PFLLsc1Rbk0hu-30" edge="1">
          <mxGeometry relative="1" as="geometry">
            <mxPoint x="260" y="173" as="sourcePoint" />
            <mxPoint x="420" y="173" as="targetPoint" />
          </mxGeometry>
        </mxCell>
        <mxCell id="NUFsKL0PFLLsc1Rbk0hu-32" value="N" style="resizable=0;html=1;whiteSpace=wrap;align=center;verticalAlign=middle;strokeColor=default;fontFamily=Helvetica;fontSize=18;fontColor=default;fontStyle=0;fillColor=default;" parent="NUFsKL0PFLLsc1Rbk0hu-31" connectable="0" vertex="1">
          <mxGeometry x="1" relative="1" as="geometry">
            <mxPoint x="-7" y="-11" as="offset" />
          </mxGeometry>
        </mxCell>
        <mxCell id="NUFsKL0PFLLsc1Rbk0hu-33" value="" style="endArrow=none;html=1;rounded=0;exitX=0;exitY=0.5;exitDx=0;exitDy=0;entryX=1;entryY=0.5;entryDx=0;entryDy=0;spacingTop=0;strokeColor=default;align=center;verticalAlign=middle;fontFamily=Helvetica;fontSize=18;fontColor=default;fontStyle=0;fillColor=default;" parent="1" source="NUFsKL0PFLLsc1Rbk0hu-13" target="NUFsKL0PFLLsc1Rbk0hu-30" edge="1">
          <mxGeometry relative="1" as="geometry">
            <mxPoint x="270" y="183" as="sourcePoint" />
            <mxPoint x="450" y="174" as="targetPoint" />
          </mxGeometry>
        </mxCell>
        <mxCell id="NUFsKL0PFLLsc1Rbk0hu-34" value="N" style="resizable=0;html=1;whiteSpace=wrap;align=center;verticalAlign=middle;strokeColor=default;fontFamily=Helvetica;fontSize=18;fontColor=default;fontStyle=0;fillColor=default;" parent="NUFsKL0PFLLsc1Rbk0hu-33" connectable="0" vertex="1">
          <mxGeometry x="1" relative="1" as="geometry">
            <mxPoint x="9" y="-10" as="offset" />
          </mxGeometry>
        </mxCell>
        <mxCell id="NUFsKL0PFLLsc1Rbk0hu-35" value="ID" style="ellipse;whiteSpace=wrap;html=1;align=center;fontStyle=4;strokeColor=default;verticalAlign=middle;fontFamily=Helvetica;fontSize=18;fontColor=default;fillColor=default;" parent="1" vertex="1">
          <mxGeometry x="70" y="64" width="100" height="40" as="geometry" />
        </mxCell>
        <mxCell id="NUFsKL0PFLLsc1Rbk0hu-36" value="Has" style="shape=rhombus;perimeter=rhombusPerimeter;whiteSpace=wrap;html=1;align=center;fontSize=18;" parent="1" vertex="1">
          <mxGeometry x="377.5" y="434" width="80" height="60" as="geometry" />
        </mxCell>
        <mxCell id="NUFsKL0PFLLsc1Rbk0hu-37" value="" style="endArrow=none;html=1;rounded=0;fontSize=18;exitX=1;exitY=0.75;exitDx=0;exitDy=0;entryX=0;entryY=0.5;entryDx=0;entryDy=0;" parent="1" source="NUFsKL0PFLLsc1Rbk0hu-18" target="NUFsKL0PFLLsc1Rbk0hu-36" edge="1">
          <mxGeometry relative="1" as="geometry">
            <mxPoint x="332.5" y="464" as="sourcePoint" />
            <mxPoint x="567.5" y="474" as="targetPoint" />
          </mxGeometry>
        </mxCell>
        <mxCell id="NUFsKL0PFLLsc1Rbk0hu-38" value="N" style="resizable=0;html=1;align=right;verticalAlign=bottom;fontSize=18;" parent="NUFsKL0PFLLsc1Rbk0hu-37" connectable="0" vertex="1">
          <mxGeometry x="1" relative="1" as="geometry" />
        </mxCell>
        <mxCell id="NUFsKL0PFLLsc1Rbk0hu-39" value="" style="endArrow=none;html=1;rounded=0;fontSize=18;exitX=0;exitY=0.75;exitDx=0;exitDy=0;entryX=1;entryY=0.5;entryDx=0;entryDy=0;" parent="1" source="NUFsKL0PFLLsc1Rbk0hu-23" target="NUFsKL0PFLLsc1Rbk0hu-36" edge="1">
          <mxGeometry relative="1" as="geometry">
            <mxPoint x="517.5" y="464" as="sourcePoint" />
            <mxPoint x="567.5" y="474" as="targetPoint" />
          </mxGeometry>
        </mxCell>
        <mxCell id="NUFsKL0PFLLsc1Rbk0hu-40" value="1" style="resizable=0;html=1;align=right;verticalAlign=bottom;fontSize=18;" parent="NUFsKL0PFLLsc1Rbk0hu-39" connectable="0" vertex="1">
          <mxGeometry x="1" relative="1" as="geometry" />
        </mxCell>
        <mxCell id="NUFsKL0PFLLsc1Rbk0hu-41" value="" style="endArrow=none;html=1;rounded=0;fontSize=18;exitX=0.75;exitY=1;exitDx=0;exitDy=0;entryX=0;entryY=0.5;entryDx=0;entryDy=0;" parent="1" source="NUFsKL0PFLLsc1Rbk0hu-1" target="NUFsKL0PFLLsc1Rbk0hu-43" edge="1">
          <mxGeometry relative="1" as="geometry">
            <mxPoint x="320" y="264" as="sourcePoint" />
            <mxPoint x="560" y="314" as="targetPoint" />
          </mxGeometry>
        </mxCell>
        <mxCell id="NUFsKL0PFLLsc1Rbk0hu-42" value="1" style="resizable=0;html=1;align=right;verticalAlign=bottom;fontSize=18;" parent="NUFsKL0PFLLsc1Rbk0hu-41" connectable="0" vertex="1">
          <mxGeometry x="1" relative="1" as="geometry">
            <mxPoint y="-10" as="offset" />
          </mxGeometry>
        </mxCell>
        <mxCell id="NUFsKL0PFLLsc1Rbk0hu-43" value="Produce" style="shape=rhombus;perimeter=rhombusPerimeter;whiteSpace=wrap;html=1;align=center;fontSize=18;" parent="1" vertex="1">
          <mxGeometry x="460" y="254" width="100" height="70" as="geometry" />
        </mxCell>
        <mxCell id="NUFsKL0PFLLsc1Rbk0hu-44" value="" style="shape=link;html=1;rounded=0;fontFamily=Helvetica;fontSize=18;fontColor=default;fontStyle=0;resizable=0;entryX=0.5;entryY=1;entryDx=0;entryDy=0;" parent="1" target="NUFsKL0PFLLsc1Rbk0hu-43" edge="1">
          <mxGeometry relative="1" as="geometry">
            <mxPoint x="640" y="434" as="sourcePoint" />
            <mxPoint x="570" y="254" as="targetPoint" />
          </mxGeometry>
        </mxCell>
        <mxCell id="NUFsKL0PFLLsc1Rbk0hu-45" value="N" style="resizable=0;html=1;whiteSpace=wrap;align=right;verticalAlign=bottom;strokeColor=default;fontFamily=Helvetica;fontSize=18;fontColor=default;fontStyle=0;fillColor=default;" parent="NUFsKL0PFLLsc1Rbk0hu-44" connectable="0" vertex="1">
          <mxGeometry x="1" relative="1" as="geometry">
            <mxPoint x="33" y="13" as="offset" />
          </mxGeometry>
        </mxCell>
        <mxCell id="NUFsKL0PFLLsc1Rbk0hu-46" value="N" style="resizable=0;html=1;align=right;verticalAlign=bottom;fontSize=18;" parent="1" connectable="0" vertex="1">
          <mxGeometry x="230" y="264.0000000000001" as="geometry">
            <mxPoint x="4" y="5" as="offset" />
          </mxGeometry>
        </mxCell>
        <mxCell id="NUFsKL0PFLLsc1Rbk0hu-47" value="" style="endArrow=none;html=1;rounded=0;fontSize=18;exitX=0.5;exitY=1;exitDx=0;exitDy=0;entryX=0.5;entryY=0;entryDx=0;entryDy=0;" parent="1" source="NUFsKL0PFLLsc1Rbk0hu-1" target="NUFsKL0PFLLsc1Rbk0hu-48" edge="1">
          <mxGeometry relative="1" as="geometry">
            <mxPoint x="160" y="195.84" as="sourcePoint" />
            <mxPoint x="485" y="315.84" as="targetPoint" />
          </mxGeometry>
        </mxCell>
        <mxCell id="NUFsKL0PFLLsc1Rbk0hu-48" value="Produce" style="shape=rhombus;perimeter=rhombusPerimeter;whiteSpace=wrap;html=1;align=center;fontSize=18;" parent="1" vertex="1">
          <mxGeometry x="160" y="272" width="100" height="70" as="geometry" />
        </mxCell>
        <mxCell id="NUFsKL0PFLLsc1Rbk0hu-49" value="" style="shape=link;html=1;rounded=0;fontFamily=Helvetica;fontSize=18;fontColor=default;fontStyle=0;resizable=0;exitX=0.606;exitY=-0.046;exitDx=0;exitDy=0;exitPerimeter=0;entryX=0.5;entryY=1;entryDx=0;entryDy=0;" parent="1" target="NUFsKL0PFLLsc1Rbk0hu-48" edge="1">
          <mxGeometry relative="1" as="geometry">
            <mxPoint x="197.72000000000003" y="434.00000000000006" as="sourcePoint" />
            <mxPoint x="250" y="374" as="targetPoint" />
          </mxGeometry>
        </mxCell>
        <mxCell id="NUFsKL0PFLLsc1Rbk0hu-50" value="N" style="resizable=0;html=1;whiteSpace=wrap;align=right;verticalAlign=bottom;strokeColor=default;fontFamily=Helvetica;fontSize=18;fontColor=default;fontStyle=0;fillColor=default;" parent="NUFsKL0PFLLsc1Rbk0hu-49" connectable="0" vertex="1">
          <mxGeometry x="1" relative="1" as="geometry">
            <mxPoint x="20" y="32" as="offset" />
          </mxGeometry>
        </mxCell>
        <mxCell id="wKg0UDCEt5iju9ze2TBS-1" value="&lt;font style=&quot;font-size: 18px;&quot;&gt;&amp;nbsp; &amp;nbsp; ID&amp;nbsp; &amp;nbsp; &amp;nbsp; &amp;nbsp; &amp;nbsp; Name&amp;nbsp; &amp;nbsp; &amp;nbsp; &amp;nbsp; &amp;nbsp; &amp;nbsp; Phone&amp;nbsp; &amp;nbsp; &amp;nbsp; &amp;nbsp;City&amp;nbsp; &amp;nbsp; &amp;nbsp; &amp;nbsp; Street&lt;/font&gt;" style="rounded=0;whiteSpace=wrap;html=1;align=left;" vertex="1" parent="1">
          <mxGeometry x="42" y="600" width="730" height="40" as="geometry" />
        </mxCell>
        <mxCell id="wKg0UDCEt5iju9ze2TBS-3" value="" style="endArrow=none;html=1;rounded=0;exitX=0.107;exitY=1.058;exitDx=0;exitDy=0;exitPerimeter=0;" edge="1" parent="1" source="wKg0UDCEt5iju9ze2TBS-1">
          <mxGeometry width="50" height="50" relative="1" as="geometry">
            <mxPoint x="70" y="650" as="sourcePoint" />
            <mxPoint x="120" y="600" as="targetPoint" />
          </mxGeometry>
        </mxCell>
        <mxCell id="wKg0UDCEt5iju9ze2TBS-4" value="" style="endArrow=none;html=1;rounded=0;exitX=0.107;exitY=1.058;exitDx=0;exitDy=0;exitPerimeter=0;" edge="1" parent="1">
          <mxGeometry width="50" height="50" relative="1" as="geometry">
            <mxPoint x="199" y="642" as="sourcePoint" />
            <mxPoint x="199" y="600" as="targetPoint" />
          </mxGeometry>
        </mxCell>
        <mxCell id="wKg0UDCEt5iju9ze2TBS-5" value="" style="endArrow=none;html=1;rounded=0;exitX=0.107;exitY=1.058;exitDx=0;exitDy=0;exitPerimeter=0;" edge="1" parent="1">
          <mxGeometry width="50" height="50" relative="1" as="geometry">
            <mxPoint x="311" y="642" as="sourcePoint" />
            <mxPoint x="311" y="600" as="targetPoint" />
          </mxGeometry>
        </mxCell>
        <mxCell id="wKg0UDCEt5iju9ze2TBS-6" value="" style="endArrow=none;html=1;rounded=0;exitX=0.107;exitY=1.058;exitDx=0;exitDy=0;exitPerimeter=0;" edge="1" parent="1">
          <mxGeometry width="50" height="50" relative="1" as="geometry">
            <mxPoint x="378" y="642" as="sourcePoint" />
            <mxPoint x="378" y="600" as="targetPoint" />
          </mxGeometry>
        </mxCell>
        <mxCell id="wKg0UDCEt5iju9ze2TBS-7" value="" style="endArrow=none;html=1;rounded=0;" edge="1" parent="1">
          <mxGeometry width="50" height="50" relative="1" as="geometry">
            <mxPoint x="81" y="630" as="sourcePoint" />
            <mxPoint x="61" y="630" as="targetPoint" />
          </mxGeometry>
        </mxCell>
        <mxCell id="wKg0UDCEt5iju9ze2TBS-8" value="&lt;span style=&quot;font-family: Cambria, serif; text-wrap: wrap;&quot;&gt;&lt;font style=&quot;font-size: 24px;&quot;&gt;Musicana&amp;nbsp;&lt;/font&gt;&lt;/span&gt;" style="text;html=1;align=center;verticalAlign=middle;resizable=0;points=[];autosize=1;strokeColor=none;fillColor=none;" vertex="1" parent="1">
          <mxGeometry x="12" y="563" width="130" height="40" as="geometry" />
        </mxCell>
        <mxCell id="wKg0UDCEt5iju9ze2TBS-9" value="&lt;font style=&quot;font-size: 18px;&quot;&gt;&amp;nbsp; &amp;nbsp; Name&amp;nbsp; &amp;nbsp; &amp;nbsp; Key&amp;nbsp; &amp;nbsp; &amp;nbsp; &amp;nbsp; &amp;nbsp; &amp;nbsp;&amp;nbsp;&lt;/font&gt;" style="rounded=0;whiteSpace=wrap;html=1;align=left;" vertex="1" parent="1">
          <mxGeometry x="42" y="793" width="730" height="40" as="geometry" />
        </mxCell>
        <mxCell id="wKg0UDCEt5iju9ze2TBS-10" value="" style="endArrow=none;html=1;rounded=0;exitX=0.107;exitY=1.058;exitDx=0;exitDy=0;exitPerimeter=0;" edge="1" source="wKg0UDCEt5iju9ze2TBS-9" parent="1">
          <mxGeometry width="50" height="50" relative="1" as="geometry">
            <mxPoint x="70" y="843" as="sourcePoint" />
            <mxPoint x="120" y="793" as="targetPoint" />
          </mxGeometry>
        </mxCell>
        <mxCell id="wKg0UDCEt5iju9ze2TBS-11" value="" style="endArrow=none;html=1;rounded=0;exitX=0.107;exitY=1.058;exitDx=0;exitDy=0;exitPerimeter=0;" edge="1" parent="1">
          <mxGeometry width="50" height="50" relative="1" as="geometry">
            <mxPoint x="199" y="835" as="sourcePoint" />
            <mxPoint x="199" y="793" as="targetPoint" />
          </mxGeometry>
        </mxCell>
        <mxCell id="wKg0UDCEt5iju9ze2TBS-13" value="" style="endArrow=none;html=1;rounded=0;exitX=0.107;exitY=1.058;exitDx=0;exitDy=0;exitPerimeter=0;" edge="1" parent="1">
          <mxGeometry width="50" height="50" relative="1" as="geometry">
            <mxPoint x="378" y="835" as="sourcePoint" />
            <mxPoint x="378" y="793" as="targetPoint" />
          </mxGeometry>
        </mxCell>
        <mxCell id="wKg0UDCEt5iju9ze2TBS-14" value="" style="endArrow=none;html=1;rounded=0;" edge="1" parent="1">
          <mxGeometry width="50" height="50" relative="1" as="geometry">
            <mxPoint x="57" y="823.5491329479771" as="sourcePoint" />
            <mxPoint x="76" y="823" as="targetPoint" />
            <Array as="points">
              <mxPoint x="110" y="823" />
            </Array>
          </mxGeometry>
        </mxCell>
        <mxCell id="wKg0UDCEt5iju9ze2TBS-15" value="&lt;span style=&quot;font-family: Cambria, serif; text-wrap: wrap;&quot;&gt;&lt;font style=&quot;font-size: 24px;&quot;&gt;instrument&amp;nbsp;&lt;/font&gt;&lt;/span&gt;" style="text;html=1;align=center;verticalAlign=middle;resizable=0;points=[];autosize=1;strokeColor=none;fillColor=none;" vertex="1" parent="1">
          <mxGeometry x="7" y="756" width="140" height="40" as="geometry" />
        </mxCell>
        <mxCell id="wKg0UDCEt5iju9ze2TBS-17" value="&lt;font style=&quot;font-size: 18px;&quot;&gt;&amp;nbsp; &amp;nbsp; Title&amp;nbsp; &amp;nbsp; &amp;nbsp; &amp;nbsp;Author&amp;nbsp; &amp;nbsp; &amp;nbsp; &amp;nbsp; &amp;nbsp; &amp;nbsp;&amp;nbsp;&lt;/font&gt;" style="rounded=0;whiteSpace=wrap;html=1;align=left;" vertex="1" parent="1">
          <mxGeometry x="42" y="928" width="730" height="40" as="geometry" />
        </mxCell>
        <mxCell id="wKg0UDCEt5iju9ze2TBS-18" value="" style="endArrow=none;html=1;rounded=0;exitX=0.107;exitY=1.058;exitDx=0;exitDy=0;exitPerimeter=0;" edge="1" source="wKg0UDCEt5iju9ze2TBS-17" parent="1">
          <mxGeometry width="50" height="50" relative="1" as="geometry">
            <mxPoint x="70" y="978" as="sourcePoint" />
            <mxPoint x="120" y="928" as="targetPoint" />
          </mxGeometry>
        </mxCell>
        <mxCell id="wKg0UDCEt5iju9ze2TBS-19" value="" style="endArrow=none;html=1;rounded=0;exitX=0.107;exitY=1.058;exitDx=0;exitDy=0;exitPerimeter=0;" edge="1" parent="1">
          <mxGeometry width="50" height="50" relative="1" as="geometry">
            <mxPoint x="199" y="970" as="sourcePoint" />
            <mxPoint x="199" y="928" as="targetPoint" />
          </mxGeometry>
        </mxCell>
        <mxCell id="wKg0UDCEt5iju9ze2TBS-21" value="" style="endArrow=none;html=1;rounded=0;exitX=0.107;exitY=1.058;exitDx=0;exitDy=0;exitPerimeter=0;" edge="1" parent="1">
          <mxGeometry width="50" height="50" relative="1" as="geometry">
            <mxPoint x="378" y="970" as="sourcePoint" />
            <mxPoint x="378" y="928" as="targetPoint" />
          </mxGeometry>
        </mxCell>
        <mxCell id="wKg0UDCEt5iju9ze2TBS-22" value="" style="endArrow=none;html=1;rounded=0;" edge="1" parent="1">
          <mxGeometry width="50" height="50" relative="1" as="geometry">
            <mxPoint x="57" y="958.5491329479771" as="sourcePoint" />
            <mxPoint x="76" y="958" as="targetPoint" />
            <Array as="points">
              <mxPoint x="110" y="958" />
            </Array>
          </mxGeometry>
        </mxCell>
        <mxCell id="wKg0UDCEt5iju9ze2TBS-23" value="&lt;span style=&quot;font-family: Cambria, serif; text-wrap: wrap;&quot;&gt;&lt;font style=&quot;font-size: 24px;&quot;&gt;Song&lt;/font&gt;&lt;/span&gt;" style="text;html=1;align=center;verticalAlign=middle;resizable=0;points=[];autosize=1;strokeColor=none;fillColor=none;" vertex="1" parent="1">
          <mxGeometry x="42" y="891" width="70" height="40" as="geometry" />
        </mxCell>
        <mxCell id="wKg0UDCEt5iju9ze2TBS-25" value="&lt;font style=&quot;font-size: 18px;&quot;&gt;&amp;nbsp; &amp;nbsp; ID&amp;nbsp; &amp;nbsp; &amp;nbsp; &amp;nbsp; &amp;nbsp; Title&lt;span style=&quot;white-space: pre;&quot;&gt;&#x9;&lt;/span&gt;&amp;nbsp;&lt;/font&gt;&lt;span style=&quot;font-size: 18px; text-align: center;&quot;&gt;Copyright_Date&lt;span style=&quot;white-space: pre;&quot;&gt;&#x9;&lt;/span&gt;&lt;/span&gt;&lt;font style=&quot;font-size: 18px;&quot;&gt;producer_IRD&lt;/font&gt;" style="rounded=0;whiteSpace=wrap;html=1;align=left;" vertex="1" parent="1">
          <mxGeometry x="42" y="1053" width="730" height="40" as="geometry" />
        </mxCell>
        <mxCell id="wKg0UDCEt5iju9ze2TBS-26" value="" style="endArrow=none;html=1;rounded=0;exitX=0.107;exitY=1.058;exitDx=0;exitDy=0;exitPerimeter=0;" edge="1" source="wKg0UDCEt5iju9ze2TBS-25" parent="1">
          <mxGeometry width="50" height="50" relative="1" as="geometry">
            <mxPoint x="70" y="1103" as="sourcePoint" />
            <mxPoint x="120" y="1053" as="targetPoint" />
          </mxGeometry>
        </mxCell>
        <mxCell id="wKg0UDCEt5iju9ze2TBS-27" value="" style="endArrow=none;html=1;rounded=0;exitX=0.107;exitY=1.058;exitDx=0;exitDy=0;exitPerimeter=0;" edge="1" parent="1">
          <mxGeometry width="50" height="50" relative="1" as="geometry">
            <mxPoint x="199" y="1095" as="sourcePoint" />
            <mxPoint x="199" y="1053" as="targetPoint" />
          </mxGeometry>
        </mxCell>
        <mxCell id="wKg0UDCEt5iju9ze2TBS-28" value="" style="endArrow=none;html=1;rounded=0;exitX=0.107;exitY=1.058;exitDx=0;exitDy=0;exitPerimeter=0;" edge="1" parent="1">
          <mxGeometry width="50" height="50" relative="1" as="geometry">
            <mxPoint x="354" y="1095" as="sourcePoint" />
            <mxPoint x="354" y="1053" as="targetPoint" />
          </mxGeometry>
        </mxCell>
        <mxCell id="wKg0UDCEt5iju9ze2TBS-30" value="" style="endArrow=none;html=1;rounded=0;" edge="1" parent="1">
          <mxGeometry width="50" height="50" relative="1" as="geometry">
            <mxPoint x="62" y="1083.5491329479771" as="sourcePoint" />
            <mxPoint x="81" y="1083" as="targetPoint" />
            <Array as="points" />
          </mxGeometry>
        </mxCell>
        <mxCell id="wKg0UDCEt5iju9ze2TBS-31" value="&lt;span style=&quot;font-family: Cambria, serif; text-wrap: wrap;&quot;&gt;&lt;font style=&quot;font-size: 24px;&quot;&gt;Album&lt;/font&gt;&lt;/span&gt;" style="text;html=1;align=center;verticalAlign=middle;resizable=0;points=[];autosize=1;strokeColor=none;fillColor=none;" vertex="1" parent="1">
          <mxGeometry x="32" y="1014" width="90" height="40" as="geometry" />
        </mxCell>
        <mxCell id="wKg0UDCEt5iju9ze2TBS-33" value="&lt;font style=&quot;font-size: 18px;&quot;&gt;&amp;nbsp; &amp;nbsp; Mus_ID&amp;nbsp; &amp;nbsp; &amp;nbsp; Inst_name&lt;/font&gt;" style="rounded=0;whiteSpace=wrap;html=1;align=left;" vertex="1" parent="1">
          <mxGeometry x="122" y="690" width="404" height="40" as="geometry" />
        </mxCell>
        <mxCell id="wKg0UDCEt5iju9ze2TBS-36" value="" style="endArrow=none;html=1;rounded=0;exitX=0.107;exitY=1.058;exitDx=0;exitDy=0;exitPerimeter=0;" edge="1" parent="1">
          <mxGeometry width="50" height="50" relative="1" as="geometry">
            <mxPoint x="219.32999999999998" y="730" as="sourcePoint" />
            <mxPoint x="219.32999999999998" y="688" as="targetPoint" />
          </mxGeometry>
        </mxCell>
        <mxCell id="wKg0UDCEt5iju9ze2TBS-38" value="&lt;font style=&quot;font-size: 18px;&quot;&gt;Mus_Inst&lt;/font&gt;" style="text;html=1;align=center;verticalAlign=middle;resizable=0;points=[];autosize=1;strokeColor=none;fillColor=none;" vertex="1" parent="1">
          <mxGeometry x="105.5" y="651" width="100" height="40" as="geometry" />
        </mxCell>
        <mxCell id="wKg0UDCEt5iju9ze2TBS-41" value="" style="endArrow=none;html=1;rounded=0;exitX=0.107;exitY=1.058;exitDx=0;exitDy=0;exitPerimeter=0;" edge="1" parent="1">
          <mxGeometry width="50" height="50" relative="1" as="geometry">
            <mxPoint x="203.32999999999998" y="724" as="sourcePoint" />
            <mxPoint x="144" y="724" as="targetPoint" />
          </mxGeometry>
        </mxCell>
        <mxCell id="wKg0UDCEt5iju9ze2TBS-42" value="" style="endArrow=none;html=1;rounded=0;exitX=0.107;exitY=1.058;exitDx=0;exitDy=0;exitPerimeter=0;" edge="1" parent="1">
          <mxGeometry width="50" height="50" relative="1" as="geometry">
            <mxPoint x="305.33" y="724" as="sourcePoint" />
            <mxPoint x="246" y="724" as="targetPoint" />
          </mxGeometry>
        </mxCell>
        <mxCell id="wKg0UDCEt5iju9ze2TBS-43" value="" style="endArrow=classic;html=1;rounded=0;entryX=0.706;entryY=1.145;entryDx=0;entryDy=0;entryPerimeter=0;exitX=0.565;exitY=0.037;exitDx=0;exitDy=0;exitPerimeter=0;" edge="1" parent="1" source="wKg0UDCEt5iju9ze2TBS-25" target="wKg0UDCEt5iju9ze2TBS-8">
          <mxGeometry width="50" height="50" relative="1" as="geometry">
            <mxPoint x="440" y="1030" as="sourcePoint" />
            <mxPoint x="801.95" y="544" as="targetPoint" />
            <Array as="points">
              <mxPoint x="820" y="970" />
              <mxPoint x="820" y="561" />
              <mxPoint x="235.95" y="561" />
            </Array>
          </mxGeometry>
        </mxCell>
        <mxCell id="wKg0UDCEt5iju9ze2TBS-44" value="" style="endArrow=classic;html=1;rounded=0;entryX=0.615;entryY=1.12;entryDx=0;entryDy=0;entryPerimeter=0;" edge="1" parent="1" target="wKg0UDCEt5iju9ze2TBS-15">
          <mxGeometry width="50" height="50" relative="1" as="geometry">
            <mxPoint x="270" y="730" as="sourcePoint" />
            <mxPoint x="320" y="680" as="targetPoint" />
          </mxGeometry>
        </mxCell>
        <mxCell id="wKg0UDCEt5iju9ze2TBS-45" value="" style="endArrow=classic;html=1;rounded=0;exitX=0;exitY=0.5;exitDx=0;exitDy=0;" edge="1" parent="1" source="wKg0UDCEt5iju9ze2TBS-33">
          <mxGeometry width="50" height="50" relative="1" as="geometry">
            <mxPoint x="280" y="740" as="sourcePoint" />
            <mxPoint x="80" y="630" as="targetPoint" />
          </mxGeometry>
        </mxCell>
        <mxCell id="wKg0UDCEt5iju9ze2TBS-46" value="" style="endArrow=none;dashed=1;html=1;dashPattern=1 3;strokeWidth=2;rounded=0;entryX=0.6;entryY=0.85;entryDx=0;entryDy=0;entryPerimeter=0;" edge="1" parent="1" target="wKg0UDCEt5iju9ze2TBS-25">
          <mxGeometry width="50" height="50" relative="1" as="geometry">
            <mxPoint x="368" y="1087" as="sourcePoint" />
            <mxPoint x="448" y="1087" as="targetPoint" />
          </mxGeometry>
        </mxCell>
        <mxCell id="wKg0UDCEt5iju9ze2TBS-47" value="&lt;span style=&quot;text-align: center; text-wrap: nowrap;&quot;&gt;&lt;font style=&quot;font-size: 18px;&quot;&gt;&amp;nbsp; Mus_ID&amp;nbsp; &amp;nbsp; &amp;nbsp; &amp;nbsp;Title&lt;/font&gt;&lt;/span&gt;" style="rounded=0;whiteSpace=wrap;html=1;align=left;" vertex="1" parent="1">
          <mxGeometry x="120" y="864" width="390" height="40" as="geometry" />
        </mxCell>
        <mxCell id="wKg0UDCEt5iju9ze2TBS-49" value="" style="endArrow=none;html=1;rounded=0;exitX=0.107;exitY=1.058;exitDx=0;exitDy=0;exitPerimeter=0;" edge="1" parent="1">
          <mxGeometry width="50" height="50" relative="1" as="geometry">
            <mxPoint x="207" y="906" as="sourcePoint" />
            <mxPoint x="207" y="864" as="targetPoint" />
          </mxGeometry>
        </mxCell>
        <mxCell id="wKg0UDCEt5iju9ze2TBS-50" value="" style="endArrow=none;html=1;rounded=0;exitX=0.107;exitY=1.058;exitDx=0;exitDy=0;exitPerimeter=0;" edge="1" parent="1">
          <mxGeometry width="50" height="50" relative="1" as="geometry">
            <mxPoint x="456" y="906" as="sourcePoint" />
            <mxPoint x="456" y="864" as="targetPoint" />
          </mxGeometry>
        </mxCell>
        <mxCell id="wKg0UDCEt5iju9ze2TBS-52" value="&lt;font style=&quot;font-size: 18px;&quot;&gt;Mus_song&amp;nbsp;&lt;/font&gt;" style="text;html=1;align=center;verticalAlign=middle;resizable=0;points=[];autosize=1;strokeColor=none;fillColor=none;" vertex="1" parent="1">
          <mxGeometry x="100" y="831" width="110" height="40" as="geometry" />
        </mxCell>
        <mxCell id="wKg0UDCEt5iju9ze2TBS-55" value="" style="endArrow=classic;html=1;rounded=0;entryX=0.929;entryY=1.1;entryDx=0;entryDy=0;entryPerimeter=0;" edge="1" parent="1" target="wKg0UDCEt5iju9ze2TBS-23">
          <mxGeometry width="50" height="50" relative="1" as="geometry">
            <mxPoint x="230" y="897" as="sourcePoint" />
            <mxPoint x="195" y="824" as="targetPoint" />
          </mxGeometry>
        </mxCell>
        <mxCell id="wKg0UDCEt5iju9ze2TBS-56" value="" style="endArrow=classic;html=1;rounded=0;" edge="1" parent="1">
          <mxGeometry width="50" height="50" relative="1" as="geometry">
            <mxPoint x="147" y="903" as="sourcePoint" />
            <mxPoint x="60" y="630" as="targetPoint" />
            <Array as="points">
              <mxPoint x="10" y="903" />
              <mxPoint x="10" y="750" />
            </Array>
          </mxGeometry>
        </mxCell>
        <mxCell id="wKg0UDCEt5iju9ze2TBS-57" value="&lt;span style=&quot;text-align: center; text-wrap: nowrap;&quot;&gt;&lt;font style=&quot;font-size: 18px;&quot;&gt;&amp;nbsp; &amp;nbsp; &amp;nbsp;Title&amp;nbsp; &amp;nbsp; &amp;nbsp; &amp;nbsp; Alb_ID&lt;/font&gt;&lt;/span&gt;" style="rounded=0;whiteSpace=wrap;html=1;align=left;" vertex="1" parent="1">
          <mxGeometry x="130" y="997" width="250" height="40" as="geometry" />
        </mxCell>
        <mxCell id="wKg0UDCEt5iju9ze2TBS-58" value="" style="endArrow=none;html=1;rounded=0;exitX=0.107;exitY=1.058;exitDx=0;exitDy=0;exitPerimeter=0;" edge="1" parent="1">
          <mxGeometry width="50" height="50" relative="1" as="geometry">
            <mxPoint x="217" y="1039" as="sourcePoint" />
            <mxPoint x="217" y="997" as="targetPoint" />
          </mxGeometry>
        </mxCell>
        <mxCell id="wKg0UDCEt5iju9ze2TBS-59" value="" style="endArrow=none;html=1;rounded=0;exitX=0.107;exitY=1.058;exitDx=0;exitDy=0;exitPerimeter=0;" edge="1" parent="1">
          <mxGeometry width="50" height="50" relative="1" as="geometry">
            <mxPoint x="466" y="1039" as="sourcePoint" />
            <mxPoint x="466" y="997" as="targetPoint" />
          </mxGeometry>
        </mxCell>
        <mxCell id="wKg0UDCEt5iju9ze2TBS-61" value="" style="endArrow=none;html=1;rounded=0;" edge="1" parent="1">
          <mxGeometry width="50" height="50" relative="1" as="geometry">
            <mxPoint x="193" y="1030" as="sourcePoint" />
            <mxPoint x="153" y="1030" as="targetPoint" />
          </mxGeometry>
        </mxCell>
        <mxCell id="wKg0UDCEt5iju9ze2TBS-63" value="&lt;span style=&quot;font-size: 18px;&quot;&gt;Alb_Song&lt;/span&gt;" style="text;html=1;align=center;verticalAlign=middle;resizable=0;points=[];autosize=1;strokeColor=none;fillColor=none;" vertex="1" parent="1">
          <mxGeometry x="115" y="966" width="100" height="40" as="geometry" />
        </mxCell>
        <mxCell id="wKg0UDCEt5iju9ze2TBS-67" value="" style="endArrow=none;html=1;rounded=0;exitX=0.107;exitY=1.058;exitDx=0;exitDy=0;exitPerimeter=0;" edge="1" parent="1">
          <mxGeometry width="50" height="50" relative="1" as="geometry">
            <mxPoint x="192.32999999999998" y="896" as="sourcePoint" />
            <mxPoint x="133" y="896" as="targetPoint" />
          </mxGeometry>
        </mxCell>
        <mxCell id="wKg0UDCEt5iju9ze2TBS-68" value="" style="endArrow=none;html=1;rounded=0;exitX=0.107;exitY=1.058;exitDx=0;exitDy=0;exitPerimeter=0;" edge="1" parent="1">
          <mxGeometry width="50" height="50" relative="1" as="geometry">
            <mxPoint x="273.33" y="895" as="sourcePoint" />
            <mxPoint x="214" y="895" as="targetPoint" />
          </mxGeometry>
        </mxCell>
        <mxCell id="wKg0UDCEt5iju9ze2TBS-69" value="" style="endArrow=classic;html=1;rounded=0;" edge="1" parent="1">
          <mxGeometry width="50" height="50" relative="1" as="geometry">
            <mxPoint x="150" y="1020" as="sourcePoint" />
            <mxPoint x="75" y="956.5" as="targetPoint" />
          </mxGeometry>
        </mxCell>
        <mxCell id="wKg0UDCEt5iju9ze2TBS-70" value="" style="endArrow=classic;html=1;rounded=0;" edge="1" parent="1">
          <mxGeometry width="50" height="50" relative="1" as="geometry">
            <mxPoint x="261.5" y="1028.5" as="sourcePoint" />
            <mxPoint x="84" y="1070" as="targetPoint" />
          </mxGeometry>
        </mxCell>
      </root>
    </mxGraphModel>
  </diagram>
</mxfile>
